<svg id="Layer_1" data-name="Layer 1" xmlns="http://www.w3.org/2000/svg" viewBox="0 0 718.94 712"><defs><style>.cls-1{fill:#0a0a0a;}</style></defs><path class="cls-1" d="M708,692.82a8.82,8.82,0,0,0,.68-3.75c0-2.32-.65-4-1.94-4.88a9.36,9.36,0,0,0-5.32-1.36h-7.23V702.3h4.13v-6.68h3.34l3.07,6.65,0,.06h4.33L705.67,695A4.57,4.57,0,0,0,708,692.82Zm-3.31-3.54a3.35,3.35,0,0,1-.68,2.31,3,3,0,0,1-2.28.72h-3.41v-6.14h2.72a4.32,4.32,0,0,1,2.83.72A3.1,3.1,0,0,1,704.71,689.28Z"/><path class="cls-1" d="M717,683.07a18.17,18.17,0,0,0-32-.1,20.84,20.84,0,0,0,0,19.23,18.23,18.23,0,0,0,6.51,6.85,17.84,17.84,0,0,0,9.41,2.53,18.16,18.16,0,0,0,9.62-2.53A17.93,17.93,0,0,0,717,702.2a20.13,20.13,0,0,0,2.32-9.58A19.42,19.42,0,0,0,717,683.07Zm-1.54,9.55a15.84,15.84,0,0,1-1.87,7.6,14.93,14.93,0,0,1-5.15,5.49,13.87,13.87,0,0,1-7.5,2,14.18,14.18,0,0,1-5.77-1.19,14,14,0,0,1-4.6-3.28,15.12,15.12,0,0,1-3-4.84,15.83,15.83,0,0,1-1.1-5.87,16.15,16.15,0,0,1,1.1-5.9,15.26,15.26,0,0,1,3-4.87,14.35,14.35,0,0,1,16.13-3.28,14.65,14.65,0,0,1,7.71,8.15A16.78,16.78,0,0,1,715.47,692.62Z"/><path class="cls-1" d="M656.14,519.51c-12.79,11-26.23,22.2-38.16,31.1-2.15,1.63-2.63,2-3.24,2.49-11.39,8.49-27.49,20.39-34.65,41.74a68.86,68.86,0,0,0-3.58,22.47v40a53.4,53.4,0,0,1-53.4,53.33H198.58a49.44,49.44,0,0,1-6-.34c-.71-.1-1.46-.14-2.15-.27a53.44,53.44,0,0,1-45.76-52.79V620.62a53.44,53.44,0,0,1,53.4-53.41H495.29a107.91,107.91,0,0,0,11.93-.1c1.16-.1,2.35-.13,3.58-.27a335,335,0,0,0,73.83-13.4c21.28-6.55,43.44-14.9,62.16-27.08A85.79,85.79,0,0,0,656.14,519.51Z"/><path class="cls-1" d="M718.39,353.24v83.37a69.55,69.55,0,0,1-6.17,26.81,67.26,67.26,0,0,1-16.13,21.89c-1.36,1.22-2.45,2.11-3.1,2.69-2.22,1.84-4.6,3.82-7.16,6-3.62,3.1-9.55,8.18-15.89,13.67-8.9,7.61-12.45,10.71-13.4,11.56-.14.1-.28.24-.41.34a98.66,98.66,0,0,1-9.35,6.93C628,538.64,605.9,547,584.62,553.54a335.13,335.13,0,0,1-73.83,13.4,71,71,0,0,0,63.7-70.55V353.24a53.41,53.41,0,0,1,53.4-53.34h36.56a33.08,33.08,0,0,1,3.31.11c1,.1,1.84.13,2.69.24s1.4.2,2.15.27A53.25,53.25,0,0,1,718.39,353.24Z"/><path class="cls-1" d="M62.52,191.17c12.79-11,26.23-22.2,38.16-31.1,2.15-1.64,2.63-2,3.24-2.49,11.39-8.49,27.49-20.4,34.65-41.74a68.94,68.94,0,0,0,3.58-22.47v-40A53.43,53.43,0,0,1,195.55,0H520.11a49.32,49.32,0,0,1,6,.34c.72.1,1.47.14,2.15.27A53.43,53.43,0,0,1,574,53.4V90a53.43,53.43,0,0,1-53.4,53.4H223.41a111.14,111.14,0,0,0-11.94.11c-1.16.1-2.35.13-3.58.27a334.88,334.88,0,0,0-73.82,13.4c-21.28,6.55-43.45,14.9-62.17,27.08A89,89,0,0,0,62.52,191.17Z"/><path class="cls-1" d="M.29,357.44V274.07a69.46,69.46,0,0,1,6.17-26.8,67.19,67.19,0,0,1,16.13-21.9c1.36-1.23,2.46-2.11,3.1-2.69,2.22-1.84,4.61-3.82,7.16-6,3.62-3.1,9.55-8.18,15.89-13.67,8.9-7.61,12.45-10.71,13.41-11.56.13-.1.27-.24.41-.34a97.26,97.26,0,0,1,9.34-6.93c18.75-12.17,40.89-20.52,62.16-27.07a335.24,335.24,0,0,1,73.83-13.4,71,71,0,0,0-63.7,70.55V357.44a53.4,53.4,0,0,1-53.4,53.33H54.24c-1.13,0-2.22,0-3.31-.1s-1.84-.13-2.7-.24c-.71-.1-1.39-.2-2.14-.27A53.25,53.25,0,0,1,.29,357.44Z"/></svg>