<svg id="Layer_1" data-name="Layer 1" xmlns="http://www.w3.org/2000/svg" viewBox="0 0 1237.75 495.98"><defs><style>.cls-1{fill:#0a0a0a;}</style></defs><path class="cls-1" d="M456.27,362.07c-8.9,7.68-18.26,15.48-26.57,21.69l-2.26,1.73c-7.93,5.93-19.14,14.23-24.12,29.11a48.16,48.16,0,0,0-2.5,15.68v27.89a37.22,37.22,0,0,1-37.19,37.2h-226a33.9,33.9,0,0,1-4.16-.24c-.5-.07-1-.09-1.49-.19a37.24,37.24,0,0,1-31.87-36.82V432.58a37.24,37.24,0,0,1,37.19-37.24h207a76.06,76.06,0,0,0,8.31-.07c.8-.07,1.64-.1,2.49-.19a232.9,232.9,0,0,0,51.41-9.35c14.82-4.56,30.26-10.39,43.3-18.88A61.32,61.32,0,0,0,456.27,362.07Z"/><path class="cls-1" d="M499.61,246.1v58.15a48.47,48.47,0,0,1-4.3,18.7,46.79,46.79,0,0,1-11.23,15.26c-.95.86-1.71,1.48-2.16,1.88l-5,4.16c-2.52,2.17-6.65,5.71-11.06,9.54-6.2,5.3-8.67,7.47-9.34,8.06l-.28.24a68.08,68.08,0,0,1-6.51,4.83c-13.06,8.49-28.47,14.32-43.29,18.88A233.53,233.53,0,0,1,355,395.15a49.5,49.5,0,0,0,44.36-49.21V246.1a37.21,37.21,0,0,1,37.18-37.19H462c.78,0,1.55,0,2.31.07s1.28.1,1.87.17,1,.14,1.5.19A37.12,37.12,0,0,1,499.61,246.1Z"/><path class="cls-1" d="M42.84,133.07c8.91-7.68,18.27-15.48,26.58-21.69,1.49-1.14,1.83-1.4,2.25-1.74,7.93-5.92,19.14-14.22,24.13-29.11a48,48,0,0,0,2.49-15.67V36.94A37.23,37.23,0,0,1,135.48-.25h226a36,36,0,0,1,4.16.23c.5.07,1,.1,1.49.19A37.25,37.25,0,0,1,399,37V62.53a37.24,37.24,0,0,1-37.19,37.24h-207a76.53,76.53,0,0,0-8.31.08c-.8.07-1.64.09-2.49.19a232.3,232.3,0,0,0-51.41,9.34c-14.82,4.57-30.26,10.39-43.3,18.88A62.71,62.71,0,0,0,42.84,133.07Z"/><path class="cls-1" d="M-.49,249V190.88a48.6,48.6,0,0,1,4.3-18.69A46.83,46.83,0,0,1,15,156.92c1-.85,1.71-1.47,2.16-1.88,1.55-1.28,3.21-2.66,5-4.16,2.52-2.16,6.65-5.7,11.06-9.53,6.2-5.31,8.67-7.47,9.34-8.07l.28-.23a66.43,66.43,0,0,1,6.51-4.83c13.06-8.49,28.47-14.32,43.29-18.88A232.93,232.93,0,0,1,144.09,100a49.5,49.5,0,0,0-44.37,49.2V249a37.21,37.21,0,0,1-37.18,37.2H37.08c-.79,0-1.55,0-2.31-.07s-1.28-.1-1.87-.17-1-.14-1.5-.19A37.13,37.13,0,0,1-.49,249Z"/><path class="cls-1" d="M918.15,351.47a8.19,8.19,0,0,0,.66-3.61c0-2.23-.64-3.79-1.87-4.67a8.92,8.92,0,0,0-5.14-1.3h-6.94v18.68h4v-6.45h3.22l3,6.39,0,.06h4.16l-3.32-7.05A4.48,4.48,0,0,0,918.15,351.47ZM915,348a3.15,3.15,0,0,1-.66,2.22,3,3,0,0,1-2.2.68h-3.28V345h2.62a4.11,4.11,0,0,1,2.71.71A2.84,2.84,0,0,1,915,348Z"/><path class="cls-1" d="M926.34,342.49a16.53,16.53,0,0,0-5.88-6.31,16.35,16.35,0,0,0-8.77-2.33,16.13,16.13,0,0,0-8.59,2.31,16.69,16.69,0,0,0-5.93,6.24,18.86,18.86,0,0,0,0,17.53,16.54,16.54,0,0,0,5.93,6.24,16.13,16.13,0,0,0,8.59,2.31,16.09,16.09,0,0,0,14.67-8.55,18.14,18.14,0,0,0,2.12-8.74A18.51,18.51,0,0,0,926.34,342.49Zm-1.41,8.72a14.12,14.12,0,0,1-1.72,6.94,13.4,13.4,0,0,1-4.71,5,12.75,12.75,0,0,1-6.86,1.87,12.9,12.9,0,0,1-5.24-1.08,12.64,12.64,0,0,1-4.18-3,13.6,13.6,0,0,1-2.78-4.41,14.34,14.34,0,0,1-1-5.33,14.71,14.71,0,0,1,1-5.37,13.58,13.58,0,0,1,2.78-4.43,13,13,0,0,1,4.18-3,12.73,12.73,0,0,1,5.24-1.08,13.08,13.08,0,0,1,5.25,1.08,13.31,13.31,0,0,1,4.23,3,13.57,13.57,0,0,1,2.8,4.43A13.79,13.79,0,0,1,924.93,351.21Z"/><path class="cls-1" d="M589.84,124.8q-12.75-15.43-12.78-46.27,0-31,12.74-46.39t43.57-15.38q30.84,0,43.63,15.42t12.78,46.35q0,30.84-12.78,46.27t-43.63,15.42Q602.62,140.22,589.84,124.8Zm64.66-11q8-7.73,8-35.25,0-27.89-8-35.47t-21.13-7.6q-13.05,0-21,7.6t-8,35.47q0,27.54,8,35.25t21,7.74Q646.5,121.52,654.5,113.78Z"/><path class="cls-1" d="M702.43,32.67h21l6.12,17.18V179.08H702.43Zm28.68,98.43q-13.58-8.76-13.57-19.19l12-12.4a19.9,19.9,0,0,0,7.29,15.55,25.39,25.39,0,0,0,17.28,6.39q10.6,0,16.45-7.29t5.84-28.33q0-20.85-5.84-28.2t-16.45-7.34a25.42,25.42,0,0,0-17.28,6.39C732,60.93,729.5,66,729.5,72l-12-12.14q0-10.44,13.57-19.3t32.28-8.86q21,0,30.67,14.17t9.62,39.88q0,25.64-9.62,39.87t-30.67,14.26Q744.72,139.88,731.11,131.1Z"/><path class="cls-1" d="M826.44,125.66q-11.88-14.56-11.88-39.83,0-26.18,12-40.21T866.44,31.5q28.89,0,40.3,14.21,11.32,14.37,11.32,40a54.89,54.89,0,0,1-.55,8.17H838.2V77.46h52.52c-.66-10.2-2.66-17.32-6-21.42q-6.48-7-18.27-7Q855,49,847.83,56.59t-7.12,29.33q0,21,7.12,28.86c4.67,5.29,11,7.91,19,7.91v17.53Q838.14,140.22,826.44,125.66Zm52.34-4.93a16,16,0,0,0,7.65-6.83,50.53,50.53,0,0,0,4.49-11.06l24.19,6.74c-1.19,7.14-3.9,12.91-8.08,17.36A38.55,38.55,0,0,1,891.47,137q-9.19,3.24-24.54,3.24V122.69A31.9,31.9,0,0,0,878.78,120.73Z"/><path class="cls-1" d="M932.09,32.67H953l6.13,18.61v87.95H932.09ZM1000.9,81.6q0-18-4.63-24.59c-3.09-4.41-7.8-6.61-14.17-6.61a21.76,21.76,0,0,0-16.89,7.78c-4.63,5.18-6.92,11.9-6.92,20.09l-13.14-6.48q0-13.85,13.09-27t34-13.14c13.38,0,22.67,4.52,27.94,13.53s7.86,21,7.86,36v58h-27.07V81.6Z"/><path class="cls-1" d="M588,297.75q-11-11.44-11-33.45H604.4c0,11.28,2.27,18.46,6.79,21.59s10.68,4.67,18.48,4.67,14-1.23,18.53-3.72,6.83-6.21,6.83-11.19q0-8.82-9-12.14t-25.14-6.65q-24.29-5.4-34-12.23t-9.72-22.3q0-14.94,11.19-25.62T629.48,186q30,0,41.2,11.75t11.14,32.51H654.39q0-16.45-7-21.08t-18.31-4.63q-11.86,0-18.7,4t-6.83,10.79q0,8.9,9.16,12.28a195.69,195.69,0,0,0,25,6.78q25.18,5.49,34.68,11.74t9.49,21.81A35.87,35.87,0,0,1,671,298.36q-10.95,10.88-41,10.89Q599,309.15,588,297.75Z"/><path class="cls-1" d="M706,295.32q-12.19-13.95-12.18-40.56T706,214.33q12.19-13.71,40.08-13.72t40,13.72q12.13,13.72,12.14,40.43t-12.14,40.56q-12.12,13.95-40,13.95T706,295.32Zm58.19-11.7q7.07-7.2,7-28.77t-7-28.69q-7.08-7.09-18.14-7.09c-7.38,0-13.41,2.38-18.13,7.09s-7,14.3-7,28.69,2.36,24,7,28.77,10.75,7.21,18.13,7.21S759.46,288.42,764.16,283.62Z"/><path class="cls-1" d="M838,259.34q0,18.07,4.49,24.7t14,6.61a22.47,22.47,0,0,0,17-7.56c4.72-5,7.05-11.65,7.05-19.87l13.22,6q0,13.75-12.45,26.95t-34.67,13.17q-20.33,0-28.07-13.13t-7.74-35.6V201.8H838Zm42.43,31.84V201.89h27.08V308.45H886.6Z"/><path class="cls-1" d="M924.28,201.89h21l6.12,19v87.6H924.28Zm62.28,24.41c-3.15-4.48-7.67-6.7-13.53-6.7q-10.08,0-15.9,6.92a23.72,23.72,0,0,0-5.84,15.73L941,235.86q0-14.67,11.61-24.83t30.67-10.16q20.32,0,27.74,12.78t7.42,39.92H991.32C991.27,239.87,989.71,230.77,986.56,226.3Z"/><path class="cls-1" d="M1038.31,295.36q-11.64-14.07-11.66-40.07,0-26.7,11.66-40.56t40.07-13.86q25.44,0,35.58,11.5t11.66,24.55l-24.11,8.28q-.63-12.58-6.6-19.1t-16.51-6.52a22.52,22.52,0,0,0-17.31,7.38q-6.81,7.36-6.79,28.33,0,20.06,6.88,27.78a22.07,22.07,0,0,0,17.22,7.73q10.44,0,16.46-7t6.65-18.39l24.11,8.63q-1.53,12-11.66,23.66t-35.58,11.7Q1050,309.44,1038.31,295.36Z"/><path class="cls-1" d="M1148.88,294.88Q1137,280.3,1137,255.05q0-26.18,12-40.21t39.92-14.12q28.88,0,40.29,14.21,11.34,14.37,11.33,40a55,55,0,0,1-.55,8.17h-79.31V246.67h52.52c-.66-10.2-2.67-17.31-6-21.41q-6.47-7-18.26-7c-7.62,0-13.81,2.52-18.62,7.56s-7.11,14.81-7.11,29.32q0,21.06,7.11,28.86c4.67,5.29,11,7.91,19.06,7.91v17.54Q1160.58,309.44,1148.88,294.88Zm52.35-5a16,16,0,0,0,7.64-6.83,49.65,49.65,0,0,0,4.5-11.06l24.19,6.74c-1.19,7.14-3.91,12.91-8.09,17.36a38.44,38.44,0,0,1-15.55,10.07q-9.2,3.24-24.55,3.24V291.9A31.54,31.54,0,0,0,1201.23,289.92Z"/><path class="cls-1" d="M579,335.11h27.34V438h50.36v18.53H579Z"/><path class="cls-1" d="M675.94,442.93q-11.87-14.58-11.88-39.83,0-26.18,12-40.21T716,348.77q28.88,0,40.29,14.21,11.34,14.37,11.33,40a54.89,54.89,0,0,1-.55,8.17H687.7V394.73h52.53c-.66-10.2-2.67-17.32-6-21.42q-6.48-7-18.26-7-11.43,0-18.62,7.55t-7.11,29.33c0,14,2.35,23.66,7.11,28.86s11,7.9,19.06,7.9v17.54Q687.64,457.52,675.94,442.93ZM728.29,438a16,16,0,0,0,7.64-6.83,49.76,49.76,0,0,0,4.5-11.05l24.18,6.74q-1.79,10.69-8.08,17.36A38.41,38.41,0,0,1,741,454.28q-9.18,3.23-24.54,3.23V440A31.33,31.33,0,0,0,728.29,438Z"/><path class="cls-1" d="M788.63,443q-9.89-14.18-9.89-40t9.71-40Q798.17,349,819.21,349q18.6,0,32.1,9.17t13.48,19.61l-12,11.52c0-5.93-2.38-11-7.16-15.29a24.89,24.89,0,0,0-17.14-6.39q-10.6,0-16.55,7.25t-5.92,28.28q0,21.15,5.92,28.38c4,4.82,9.48,7.25,16.55,7.25a24.78,24.78,0,0,0,17.14-6.43,20.18,20.18,0,0,0,7.16-15.51l12,12.4q0,10.6-13.35,19.3t-32,8.68Q798.53,457.12,788.63,443Zm7.82,47.41q-13.58-8.22-15.38-28.37h26.44A23.92,23.92,0,0,0,811,473.15a16.11,16.11,0,0,0,7.73,6.26,30.19,30.19,0,0,0,11.11,1.94c7,0,12.53-1.68,16.76-5.05s6.35-10.73,6.35-22.12v-83L860.21,350h19.87V451.5q0,18.06-7.11,28.42a38.42,38.42,0,0,1-17.63,14.51q-10.51,4.2-26.35,4.19Q810,498.59,796.45,490.38Z"/></svg>